<?xml version="1.0" encoding="UTF-8" standalone="no"?>
<!DOCTYPE svg PUBLIC "-//W3C//DTD SVG 1.1//EN" "http://www.w3.org/Graphics/SVG/1.1/DTD/svg11.dtd">
<svg width="100%" height="100%" viewBox="0 0 7087 2599" version="1.1" xmlns="http://www.w3.org/2000/svg" xmlns:xlink="http://www.w3.org/1999/xlink" xml:space="preserve" xmlns:serif="http://www.serif.com/" style="fill-rule:evenodd;clip-rule:evenodd;stroke-linejoin:round;stroke-miterlimit:2;">
    <g id="Ebene1">
        <rect x="-71.403" y="0" width="7415.42" height="2661.93" style="fill:white;"/>
    </g>
    <g>
        <g transform="matrix(1,0,0,1,185.597,257.104)">
            <g transform="matrix(833.333,0,0,833.333,947.178,875)">
                <path d="M0.475,-0.179C0.475,-0.212 0.463,-0.239 0.438,-0.261C0.414,-0.283 0.371,-0.301 0.309,-0.316C0.233,-0.334 0.175,-0.361 0.133,-0.396C0.09,-0.43 0.069,-0.474 0.069,-0.527C0.069,-0.582 0.092,-0.628 0.137,-0.666C0.183,-0.703 0.242,-0.721 0.314,-0.721C0.392,-0.721 0.454,-0.7 0.5,-0.657C0.546,-0.615 0.568,-0.565 0.566,-0.509L0.565,-0.506L0.474,-0.506C0.474,-0.548 0.46,-0.581 0.432,-0.607C0.405,-0.633 0.365,-0.646 0.314,-0.646C0.266,-0.646 0.229,-0.635 0.204,-0.613C0.178,-0.591 0.166,-0.563 0.166,-0.528C0.166,-0.497 0.179,-0.472 0.207,-0.451C0.235,-0.43 0.28,-0.412 0.342,-0.396C0.417,-0.378 0.474,-0.351 0.513,-0.314C0.552,-0.278 0.571,-0.234 0.571,-0.18C0.571,-0.123 0.548,-0.077 0.501,-0.042C0.454,-0.007 0.393,0.01 0.317,0.01C0.246,0.01 0.184,-0.009 0.129,-0.047C0.075,-0.086 0.048,-0.137 0.05,-0.202L0.051,-0.205L0.143,-0.205C0.143,-0.159 0.159,-0.124 0.193,-0.101C0.226,-0.077 0.268,-0.065 0.317,-0.065C0.366,-0.065 0.404,-0.075 0.433,-0.096C0.461,-0.116 0.475,-0.144 0.475,-0.179Z" style="fill:rgb(51,51,51);fill-rule:nonzero;"/>
            </g>
            <g transform="matrix(833.333,0,0,833.333,1466.79,875)">
                <path d="M0.289,0.01C0.215,0.01 0.157,-0.014 0.114,-0.063C0.07,-0.112 0.048,-0.176 0.048,-0.254L0.048,-0.275C0.048,-0.351 0.071,-0.413 0.115,-0.463C0.16,-0.513 0.213,-0.538 0.274,-0.538C0.346,-0.538 0.4,-0.517 0.436,-0.474C0.472,-0.431 0.491,-0.373 0.491,-0.302L0.491,-0.242L0.148,-0.242L0.146,-0.239C0.147,-0.188 0.16,-0.147 0.185,-0.114C0.21,-0.081 0.244,-0.065 0.289,-0.065C0.322,-0.065 0.35,-0.07 0.375,-0.079C0.399,-0.088 0.421,-0.101 0.438,-0.117L0.476,-0.055C0.457,-0.036 0.432,-0.021 0.401,-0.008C0.37,0.004 0.333,0.01 0.289,0.01ZM0.274,-0.462C0.242,-0.462 0.215,-0.449 0.192,-0.422C0.169,-0.394 0.155,-0.36 0.15,-0.319L0.151,-0.317L0.395,-0.317L0.395,-0.33C0.395,-0.367 0.384,-0.399 0.364,-0.424C0.344,-0.45 0.314,-0.462 0.274,-0.462Z" style="fill:rgb(51,51,51);fill-rule:nonzero;"/>
            </g>
            <g transform="matrix(833.333,0,0,833.333,1907.46,875)">
                <path d="M0.32,-0.443L0.271,-0.446C0.245,-0.446 0.224,-0.44 0.206,-0.428C0.189,-0.416 0.175,-0.399 0.166,-0.377L0.166,-0L0.07,-0L0.07,-0.528L0.156,-0.528L0.165,-0.451C0.18,-0.479 0.198,-0.5 0.22,-0.515C0.242,-0.53 0.268,-0.538 0.296,-0.538C0.304,-0.538 0.31,-0.538 0.317,-0.536C0.323,-0.535 0.329,-0.534 0.333,-0.533L0.32,-0.443Z" style="fill:rgb(51,51,51);fill-rule:nonzero;"/>
            </g>
            <g transform="matrix(833.333,0,0,833.333,2200.43,875)">
                <path d="M0.246,-0.156L0.254,-0.119L0.257,-0.119L0.267,-0.156L0.388,-0.528L0.486,-0.528L0.292,-0L0.219,-0L0.022,-0.528L0.121,-0.528L0.246,-0.156Z" style="fill:rgb(51,51,51);fill-rule:nonzero;"/>
            </g>
            <g transform="matrix(833.333,0,0,833.333,2614.25,875)">
                <path d="M0.289,0.01C0.215,0.01 0.157,-0.014 0.114,-0.063C0.07,-0.112 0.048,-0.176 0.048,-0.254L0.048,-0.275C0.048,-0.351 0.071,-0.413 0.115,-0.463C0.16,-0.513 0.213,-0.538 0.274,-0.538C0.346,-0.538 0.4,-0.517 0.436,-0.474C0.472,-0.431 0.491,-0.373 0.491,-0.302L0.491,-0.242L0.148,-0.242L0.146,-0.239C0.147,-0.188 0.16,-0.147 0.185,-0.114C0.21,-0.081 0.244,-0.065 0.289,-0.065C0.322,-0.065 0.35,-0.07 0.375,-0.079C0.399,-0.088 0.421,-0.101 0.438,-0.117L0.476,-0.055C0.457,-0.036 0.432,-0.021 0.401,-0.008C0.37,0.004 0.333,0.01 0.289,0.01ZM0.274,-0.462C0.242,-0.462 0.215,-0.449 0.192,-0.422C0.169,-0.394 0.155,-0.36 0.15,-0.319L0.151,-0.317L0.395,-0.317L0.395,-0.33C0.395,-0.367 0.384,-0.399 0.364,-0.424C0.344,-0.45 0.314,-0.462 0.274,-0.462Z" style="fill:rgb(51,51,51);fill-rule:nonzero;"/>
            </g>
            <g transform="matrix(833.333,0,0,833.333,3054.93,875)">
                <path d="M0.32,-0.443L0.271,-0.446C0.245,-0.446 0.224,-0.44 0.206,-0.428C0.189,-0.416 0.175,-0.399 0.166,-0.377L0.166,-0L0.07,-0L0.07,-0.528L0.156,-0.528L0.165,-0.451C0.18,-0.479 0.198,-0.5 0.22,-0.515C0.242,-0.53 0.268,-0.538 0.296,-0.538C0.304,-0.538 0.31,-0.538 0.317,-0.536C0.323,-0.535 0.329,-0.534 0.333,-0.533L0.32,-0.443Z" style="fill:rgb(51,51,51);fill-rule:nonzero;"/>
            </g>
            <g transform="matrix(833.333,0,0,833.333,3340.57,875)">
                <path d="M0.377,-0.14C0.377,-0.161 0.369,-0.179 0.353,-0.192C0.337,-0.206 0.306,-0.218 0.261,-0.228C0.197,-0.242 0.149,-0.261 0.116,-0.285C0.084,-0.309 0.068,-0.341 0.068,-0.383C0.068,-0.426 0.086,-0.462 0.123,-0.493C0.159,-0.523 0.207,-0.538 0.265,-0.538C0.327,-0.538 0.376,-0.522 0.412,-0.491C0.448,-0.459 0.465,-0.421 0.464,-0.375L0.463,-0.373L0.371,-0.373C0.371,-0.396 0.361,-0.416 0.342,-0.435C0.323,-0.453 0.297,-0.462 0.265,-0.462C0.231,-0.462 0.206,-0.455 0.189,-0.44C0.172,-0.425 0.164,-0.407 0.164,-0.386C0.164,-0.365 0.171,-0.348 0.186,-0.336C0.201,-0.324 0.23,-0.314 0.275,-0.304C0.342,-0.29 0.392,-0.27 0.424,-0.246C0.457,-0.221 0.473,-0.188 0.473,-0.147C0.473,-0.1 0.454,-0.062 0.416,-0.033C0.378,-0.004 0.329,0.01 0.268,0.01C0.2,0.01 0.147,-0.007 0.108,-0.041C0.07,-0.075 0.051,-0.115 0.053,-0.161L0.054,-0.164L0.146,-0.164C0.148,-0.129 0.16,-0.104 0.184,-0.089C0.208,-0.073 0.236,-0.065 0.268,-0.065C0.302,-0.065 0.329,-0.072 0.348,-0.086C0.367,-0.1 0.377,-0.118 0.377,-0.14Z" style="fill:rgb(51,51,51);fill-rule:nonzero;"/>
            </g>
            <g transform="matrix(833.333,0,0,833.333,3776.36,875)">
                <path d="M0.197,-0.656L0.197,-0.528L0.297,-0.528L0.297,-0.457L0.197,-0.457L0.197,-0.136C0.197,-0.111 0.202,-0.094 0.212,-0.084C0.222,-0.074 0.236,-0.069 0.253,-0.069C0.258,-0.069 0.265,-0.069 0.271,-0.071C0.278,-0.072 0.284,-0.074 0.289,-0.076L0.302,-0.01C0.295,-0.004 0.284,0.001 0.27,0.005C0.256,0.008 0.243,0.01 0.229,0.01C0.189,0.01 0.158,-0.002 0.135,-0.025C0.112,-0.049 0.101,-0.086 0.101,-0.136L0.101,-0.457L0.017,-0.457L0.017,-0.528L0.101,-0.528L0.101,-0.656L0.197,-0.656Z" style="fill:rgb(51,51,51);fill-rule:nonzero;"/>
            </g>
            <g transform="matrix(833.333,0,0,833.333,4064.45,875)">
                <path d="M0.395,-0C0.391,-0.016 0.389,-0.03 0.387,-0.042C0.385,-0.054 0.384,-0.067 0.384,-0.079C0.366,-0.054 0.343,-0.032 0.314,-0.015C0.285,0.002 0.254,0.01 0.221,0.01C0.166,0.01 0.124,-0.004 0.095,-0.032C0.066,-0.06 0.052,-0.099 0.052,-0.148C0.052,-0.199 0.072,-0.238 0.113,-0.267C0.154,-0.295 0.209,-0.31 0.279,-0.31L0.384,-0.31L0.384,-0.362C0.384,-0.393 0.374,-0.417 0.355,-0.435C0.337,-0.453 0.31,-0.462 0.275,-0.462C0.244,-0.462 0.219,-0.455 0.2,-0.439C0.181,-0.423 0.171,-0.404 0.171,-0.382L0.079,-0.382L0.078,-0.385C0.076,-0.423 0.094,-0.458 0.133,-0.49C0.171,-0.522 0.22,-0.538 0.281,-0.538C0.341,-0.538 0.389,-0.523 0.425,-0.492C0.462,-0.462 0.48,-0.418 0.48,-0.361L0.48,-0.106C0.48,-0.088 0.481,-0.069 0.483,-0.052C0.485,-0.034 0.488,-0.017 0.494,-0L0.395,-0ZM0.235,-0.07C0.27,-0.07 0.301,-0.079 0.329,-0.097C0.357,-0.115 0.375,-0.136 0.384,-0.159L0.384,-0.245L0.276,-0.245C0.237,-0.245 0.206,-0.235 0.183,-0.215C0.16,-0.196 0.148,-0.173 0.148,-0.146C0.148,-0.123 0.155,-0.104 0.17,-0.091C0.185,-0.077 0.206,-0.07 0.235,-0.07Z" style="fill:rgb(51,51,51);fill-rule:nonzero;"/>
            </g>
            <g transform="matrix(833.333,0,0,833.333,4522.62,875)">
                <path d="M0.156,-0.528L0.163,-0.45C0.18,-0.478 0.202,-0.499 0.229,-0.515C0.255,-0.53 0.285,-0.538 0.319,-0.538C0.376,-0.538 0.42,-0.521 0.452,-0.488C0.483,-0.455 0.499,-0.403 0.499,-0.333L0.499,-0L0.402,-0L0.402,-0.332C0.402,-0.378 0.393,-0.411 0.375,-0.431C0.356,-0.45 0.328,-0.46 0.291,-0.46C0.263,-0.46 0.238,-0.453 0.217,-0.44C0.196,-0.427 0.179,-0.408 0.166,-0.385L0.166,-0L0.07,-0L0.07,-0.528L0.156,-0.528Z" style="fill:rgb(51,51,51);fill-rule:nonzero;"/>
            </g>
            <g transform="matrix(833.333,0,0,833.333,4996.25,875)">
                <path d="M0.048,-0.254C0.048,-0.339 0.066,-0.408 0.102,-0.46C0.139,-0.512 0.189,-0.538 0.255,-0.538C0.286,-0.538 0.313,-0.532 0.337,-0.521C0.361,-0.51 0.382,-0.493 0.398,-0.471L0.398,-0.762L0.495,-0.762L0.495,-0L0.416,-0L0.405,-0.065C0.388,-0.04 0.366,-0.021 0.341,-0.009C0.316,0.004 0.287,0.01 0.254,0.01C0.189,0.01 0.139,-0.013 0.103,-0.06C0.066,-0.107 0.048,-0.168 0.048,-0.244L0.048,-0.254ZM0.144,-0.244C0.144,-0.191 0.155,-0.148 0.177,-0.116C0.199,-0.084 0.232,-0.068 0.278,-0.068C0.307,-0.068 0.331,-0.074 0.351,-0.087C0.37,-0.1 0.386,-0.119 0.398,-0.142L0.398,-0.389C0.386,-0.41 0.37,-0.428 0.35,-0.441C0.331,-0.454 0.307,-0.46 0.279,-0.46C0.233,-0.46 0.199,-0.441 0.177,-0.403C0.155,-0.365 0.144,-0.315 0.144,-0.254L0.144,-0.244Z" style="fill:rgb(51,51,51);fill-rule:nonzero;"/>
            </g>
            <g transform="matrix(833.333,0,0,833.333,5469.88,875)">
                <path d="M0.047,-0.269C0.047,-0.347 0.069,-0.412 0.111,-0.462C0.153,-0.513 0.211,-0.538 0.283,-0.538C0.356,-0.538 0.414,-0.513 0.457,-0.462C0.499,-0.412 0.521,-0.347 0.521,-0.269L0.521,-0.258C0.521,-0.18 0.499,-0.115 0.457,-0.065C0.415,-0.015 0.357,0.01 0.284,0.01C0.211,0.01 0.154,-0.015 0.111,-0.065C0.069,-0.115 0.047,-0.18 0.047,-0.258L0.047,-0.269ZM0.144,-0.258C0.144,-0.202 0.155,-0.156 0.179,-0.12C0.203,-0.083 0.238,-0.065 0.284,-0.065C0.33,-0.065 0.365,-0.083 0.389,-0.12C0.412,-0.156 0.424,-0.202 0.424,-0.258L0.424,-0.269C0.424,-0.324 0.412,-0.37 0.388,-0.407C0.365,-0.444 0.329,-0.462 0.283,-0.462C0.237,-0.462 0.203,-0.444 0.179,-0.407C0.155,-0.37 0.144,-0.324 0.144,-0.269L0.144,-0.258Z" style="fill:rgb(51,51,51);fill-rule:nonzero;"/>
            </g>
            <g transform="matrix(833.333,0,0,833.333,5943.52,875)">
                <path d="M0.32,-0.443L0.271,-0.446C0.245,-0.446 0.224,-0.44 0.206,-0.428C0.189,-0.416 0.175,-0.399 0.166,-0.377L0.166,-0L0.07,-0L0.07,-0.528L0.156,-0.528L0.165,-0.451C0.18,-0.479 0.198,-0.5 0.22,-0.515C0.242,-0.53 0.268,-0.538 0.296,-0.538C0.304,-0.538 0.31,-0.538 0.317,-0.536C0.323,-0.535 0.329,-0.534 0.333,-0.533L0.32,-0.443Z" style="fill:rgb(51,51,51);fill-rule:nonzero;"/>
            </g>
            <g transform="matrix(833.333,0,0,833.333,6236.08,875)">
                <path d="M0.197,-0.656L0.197,-0.528L0.297,-0.528L0.297,-0.457L0.197,-0.457L0.197,-0.136C0.197,-0.111 0.202,-0.094 0.212,-0.084C0.222,-0.074 0.236,-0.069 0.253,-0.069C0.258,-0.069 0.265,-0.069 0.271,-0.071C0.278,-0.072 0.284,-0.074 0.289,-0.076L0.302,-0.01C0.295,-0.004 0.284,0.001 0.27,0.005C0.256,0.008 0.243,0.01 0.229,0.01C0.189,0.01 0.158,-0.002 0.135,-0.025C0.112,-0.049 0.101,-0.086 0.101,-0.136L0.101,-0.457L0.017,-0.457L0.017,-0.528L0.101,-0.528L0.101,-0.656L0.197,-0.656Z" style="fill:rgb(51,51,51);fill-rule:nonzero;"/>
            </g>
            <g transform="matrix(833.333,0,0,833.333,947.178,1758.33)">
                <path d="M0.088,-0L0.088,-0.711L0.306,-0.711C0.399,-0.711 0.474,-0.682 0.53,-0.625C0.587,-0.568 0.615,-0.494 0.615,-0.404L0.615,-0.307C0.615,-0.216 0.587,-0.142 0.53,-0.085C0.474,-0.028 0.399,-0 0.306,-0L0.088,-0ZM0.184,-0.635L0.184,-0.075L0.306,-0.075C0.372,-0.075 0.424,-0.097 0.462,-0.14C0.5,-0.183 0.519,-0.239 0.519,-0.307L0.519,-0.405C0.519,-0.472 0.5,-0.527 0.462,-0.57C0.424,-0.614 0.372,-0.635 0.306,-0.635L0.184,-0.635Z" style="fill:rgb(51,51,51);fill-rule:nonzero;"/>
            </g>
            <g transform="matrix(833.333,0,0,833.333,1496.09,1758.33)">
                <path d="M0.289,0.01C0.215,0.01 0.157,-0.014 0.114,-0.063C0.07,-0.112 0.048,-0.176 0.048,-0.254L0.048,-0.275C0.048,-0.351 0.071,-0.413 0.115,-0.463C0.16,-0.513 0.213,-0.538 0.274,-0.538C0.346,-0.538 0.4,-0.517 0.436,-0.474C0.472,-0.431 0.491,-0.373 0.491,-0.302L0.491,-0.242L0.148,-0.242L0.146,-0.239C0.147,-0.188 0.16,-0.147 0.185,-0.114C0.21,-0.081 0.244,-0.065 0.289,-0.065C0.322,-0.065 0.35,-0.07 0.375,-0.079C0.399,-0.088 0.421,-0.101 0.438,-0.117L0.476,-0.055C0.457,-0.036 0.432,-0.021 0.401,-0.008C0.37,0.004 0.333,0.01 0.289,0.01ZM0.274,-0.462C0.242,-0.462 0.215,-0.449 0.192,-0.422C0.169,-0.394 0.155,-0.36 0.15,-0.319L0.151,-0.317L0.395,-0.317L0.395,-0.33C0.395,-0.367 0.384,-0.399 0.364,-0.424C0.344,-0.45 0.314,-0.462 0.274,-0.462Z" style="fill:rgb(51,51,51);fill-rule:nonzero;"/>
            </g>
            <g transform="matrix(833.333,0,0,833.333,1936.76,1758.33)">
                <path d="M0.405,-0.078C0.389,-0.05 0.367,-0.028 0.341,-0.013C0.315,0.003 0.285,0.01 0.251,0.01C0.193,0.01 0.148,-0.008 0.116,-0.045C0.084,-0.082 0.068,-0.139 0.068,-0.217L0.068,-0.528L0.164,-0.528L0.164,-0.216C0.164,-0.16 0.172,-0.121 0.189,-0.1C0.206,-0.078 0.231,-0.068 0.267,-0.068C0.301,-0.068 0.329,-0.075 0.351,-0.089C0.374,-0.102 0.39,-0.122 0.402,-0.147L0.402,-0.528L0.498,-0.528L0.498,-0L0.412,-0L0.405,-0.078Z" style="fill:rgb(51,51,51);fill-rule:nonzero;"/>
            </g>
            <g transform="matrix(833.333,0,0,833.333,2410.39,1758.33)">
                <path d="M0.197,-0.656L0.197,-0.528L0.297,-0.528L0.297,-0.457L0.197,-0.457L0.197,-0.136C0.197,-0.111 0.202,-0.094 0.212,-0.084C0.222,-0.074 0.236,-0.069 0.253,-0.069C0.258,-0.069 0.265,-0.069 0.271,-0.071C0.278,-0.072 0.284,-0.074 0.289,-0.076L0.302,-0.01C0.295,-0.004 0.284,0.001 0.27,0.005C0.256,0.008 0.243,0.01 0.229,0.01C0.189,0.01 0.158,-0.002 0.135,-0.025C0.112,-0.049 0.101,-0.086 0.101,-0.136L0.101,-0.457L0.017,-0.457L0.017,-0.528L0.101,-0.528L0.101,-0.656L0.197,-0.656Z" style="fill:rgb(51,51,51);fill-rule:nonzero;"/>
            </g>
            <g transform="matrix(833.333,0,0,833.333,2698.48,1758.33)">
                <path d="M0.377,-0.14C0.377,-0.161 0.369,-0.179 0.353,-0.192C0.337,-0.206 0.306,-0.218 0.261,-0.228C0.197,-0.242 0.149,-0.261 0.116,-0.285C0.084,-0.309 0.068,-0.341 0.068,-0.383C0.068,-0.426 0.086,-0.462 0.123,-0.493C0.159,-0.523 0.207,-0.538 0.265,-0.538C0.327,-0.538 0.376,-0.522 0.412,-0.491C0.448,-0.459 0.465,-0.421 0.464,-0.375L0.463,-0.373L0.371,-0.373C0.371,-0.396 0.361,-0.416 0.342,-0.435C0.323,-0.453 0.297,-0.462 0.265,-0.462C0.231,-0.462 0.206,-0.455 0.189,-0.44C0.172,-0.425 0.164,-0.407 0.164,-0.386C0.164,-0.365 0.171,-0.348 0.186,-0.336C0.201,-0.324 0.23,-0.314 0.275,-0.304C0.342,-0.29 0.392,-0.27 0.424,-0.246C0.457,-0.221 0.473,-0.188 0.473,-0.147C0.473,-0.1 0.454,-0.062 0.416,-0.033C0.378,-0.004 0.329,0.01 0.268,0.01C0.2,0.01 0.147,-0.007 0.108,-0.041C0.07,-0.075 0.051,-0.115 0.053,-0.161L0.054,-0.164L0.146,-0.164C0.148,-0.129 0.16,-0.104 0.184,-0.089C0.208,-0.073 0.236,-0.065 0.268,-0.065C0.302,-0.065 0.329,-0.072 0.348,-0.086C0.367,-0.1 0.377,-0.118 0.377,-0.14Z" style="fill:rgb(51,51,51);fill-rule:nonzero;"/>
            </g>
            <g transform="matrix(833.333,0,0,833.333,3134.27,1758.33)">
                <path d="M0.285,-0.065C0.317,-0.065 0.345,-0.075 0.369,-0.094C0.393,-0.114 0.405,-0.138 0.405,-0.167L0.492,-0.167L0.493,-0.164C0.494,-0.118 0.474,-0.078 0.432,-0.043C0.39,-0.007 0.341,0.01 0.285,0.01C0.208,0.01 0.149,-0.015 0.108,-0.065C0.068,-0.115 0.047,-0.178 0.047,-0.254L0.047,-0.274C0.047,-0.35 0.068,-0.412 0.109,-0.463C0.149,-0.513 0.208,-0.538 0.285,-0.538C0.347,-0.538 0.397,-0.52 0.436,-0.483C0.476,-0.447 0.494,-0.402 0.493,-0.349L0.492,-0.346L0.405,-0.346C0.405,-0.378 0.394,-0.406 0.371,-0.428C0.348,-0.451 0.319,-0.462 0.285,-0.462C0.234,-0.462 0.198,-0.444 0.177,-0.408C0.155,-0.372 0.144,-0.327 0.144,-0.274L0.144,-0.254C0.144,-0.2 0.155,-0.155 0.176,-0.119C0.198,-0.083 0.234,-0.065 0.285,-0.065Z" style="fill:rgb(51,51,51);fill-rule:nonzero;"/>
            </g>
            <g transform="matrix(833.333,0,0,833.333,3576.57,1758.33)">
                <path d="M0.166,-0.458C0.184,-0.483 0.207,-0.503 0.233,-0.517C0.26,-0.531 0.289,-0.538 0.321,-0.538C0.378,-0.538 0.421,-0.521 0.453,-0.487C0.484,-0.453 0.5,-0.401 0.5,-0.331L0.5,-0L0.404,-0L0.404,-0.332C0.404,-0.376 0.394,-0.408 0.376,-0.429C0.357,-0.45 0.329,-0.46 0.292,-0.46C0.265,-0.46 0.241,-0.454 0.219,-0.441C0.198,-0.429 0.18,-0.412 0.166,-0.39L0.166,-0L0.07,-0L0.07,-0.762L0.166,-0.762L0.166,-0.458Z" style="fill:rgb(51,51,51);fill-rule:nonzero;"/>
            </g>
            <g transform="matrix(833.333,0,0,833.333,4050.21,1758.33)">
                <rect x="0.078" y="-0.762" width="0.096" height="0.762" style="fill:rgb(51,51,51);fill-rule:nonzero;"/>
            </g>
            <g transform="matrix(833.333,0,0,833.333,4260.17,1758.33)">
                <path d="M0.395,-0C0.391,-0.016 0.389,-0.03 0.387,-0.042C0.385,-0.054 0.384,-0.067 0.384,-0.079C0.366,-0.054 0.343,-0.032 0.314,-0.015C0.285,0.002 0.254,0.01 0.221,0.01C0.166,0.01 0.124,-0.004 0.095,-0.032C0.066,-0.06 0.052,-0.099 0.052,-0.148C0.052,-0.199 0.072,-0.238 0.113,-0.267C0.154,-0.295 0.209,-0.31 0.279,-0.31L0.384,-0.31L0.384,-0.362C0.384,-0.393 0.374,-0.417 0.355,-0.435C0.337,-0.453 0.31,-0.462 0.275,-0.462C0.244,-0.462 0.219,-0.455 0.2,-0.439C0.181,-0.423 0.171,-0.404 0.171,-0.382L0.079,-0.382L0.078,-0.385C0.076,-0.423 0.094,-0.458 0.133,-0.49C0.171,-0.522 0.22,-0.538 0.281,-0.538C0.341,-0.538 0.389,-0.523 0.425,-0.492C0.462,-0.462 0.48,-0.418 0.48,-0.361L0.48,-0.106C0.48,-0.088 0.481,-0.069 0.483,-0.052C0.485,-0.034 0.488,-0.017 0.494,-0L0.395,-0ZM0.235,-0.07C0.27,-0.07 0.301,-0.079 0.329,-0.097C0.357,-0.115 0.375,-0.136 0.384,-0.159L0.384,-0.245L0.276,-0.245C0.237,-0.245 0.206,-0.235 0.183,-0.215C0.16,-0.196 0.148,-0.173 0.148,-0.146C0.148,-0.123 0.155,-0.104 0.17,-0.091C0.185,-0.077 0.206,-0.07 0.235,-0.07Z" style="fill:rgb(51,51,51);fill-rule:nonzero;"/>
            </g>
            <g transform="matrix(833.333,0,0,833.333,4718.34,1758.33)">
                <path d="M0.156,-0.528L0.163,-0.45C0.18,-0.478 0.202,-0.499 0.229,-0.515C0.255,-0.53 0.285,-0.538 0.319,-0.538C0.376,-0.538 0.42,-0.521 0.452,-0.488C0.483,-0.455 0.499,-0.403 0.499,-0.333L0.499,-0L0.402,-0L0.402,-0.332C0.402,-0.378 0.393,-0.411 0.375,-0.431C0.356,-0.45 0.328,-0.46 0.291,-0.46C0.263,-0.46 0.238,-0.453 0.217,-0.44C0.196,-0.427 0.179,-0.408 0.166,-0.385L0.166,-0L0.07,-0L0.07,-0.528L0.156,-0.528Z" style="fill:rgb(51,51,51);fill-rule:nonzero;"/>
            </g>
            <g transform="matrix(833.333,0,0,833.333,5191.97,1758.33)">
                <path d="M0.048,-0.254C0.048,-0.339 0.066,-0.408 0.102,-0.46C0.139,-0.512 0.189,-0.538 0.255,-0.538C0.286,-0.538 0.313,-0.532 0.337,-0.521C0.361,-0.51 0.382,-0.493 0.398,-0.471L0.398,-0.762L0.495,-0.762L0.495,-0L0.416,-0L0.405,-0.065C0.388,-0.04 0.366,-0.021 0.341,-0.009C0.316,0.004 0.287,0.01 0.254,0.01C0.189,0.01 0.139,-0.013 0.103,-0.06C0.066,-0.107 0.048,-0.168 0.048,-0.244L0.048,-0.254ZM0.144,-0.244C0.144,-0.191 0.155,-0.148 0.177,-0.116C0.199,-0.084 0.232,-0.068 0.278,-0.068C0.307,-0.068 0.331,-0.074 0.351,-0.087C0.37,-0.1 0.386,-0.119 0.398,-0.142L0.398,-0.389C0.386,-0.41 0.37,-0.428 0.35,-0.441C0.331,-0.454 0.307,-0.46 0.279,-0.46C0.233,-0.46 0.199,-0.441 0.177,-0.403C0.155,-0.365 0.144,-0.315 0.144,-0.254L0.144,-0.244Z" style="fill:rgb(51,51,51);fill-rule:nonzero;"/>
            </g>
        </g>
        <g transform="matrix(0.965854,0,0,1,16.5571,-4.69399)">
            <rect x="232.873" y="244.929" width="481.121" height="698.607"/>
        </g>
        <g transform="matrix(0.965854,0,0,1,16.5571,693.913)">
            <rect x="232.873" y="244.929" width="481.121" height="698.607" style="fill:rgb(228,0,0);"/>
        </g>
        <g transform="matrix(0.965854,0,0,1,16.5571,1392.52)">
            <rect x="232.873" y="244.929" width="481.121" height="698.607" style="fill:rgb(232,226,0);"/>
        </g>
    </g>
</svg>
